<svg xmlns="http://www.w3.org/2000/svg" xmlns:xlink="http://www.w3.org/1999/xlink" xmlns:lucid="lucid" width="180" height="100"><g transform="translate(-920 -260)" lucid:page-tab-id="0_0"><path d="M920 266a6 6 0 0 1 6-6h168a6 6 0 0 1 6 6v88a6 6 0 0 1-6 6H926a6 6 0 0 1-6-6z" fill="none"/><use xlink:href="#a" transform="matrix(1,0,0,1,920,260) translate(30.746666666666783 85.9466666666665)"/><defs><path fill="#fff" d="M254-115h137l10-21v-425l-12-24H253l8 17v439zM22 15l59-117v-495L22-715h503l56 111v508L525 15H22" id="b"/><path fill="#fff" d="M261-435h118c20-26 8-84 11-126l-12-24H254l7 17v133zm-7 320h126l10-21v-148l-10-21H261v176zm213-255l57 30 36 67v177L504 15H22l59-117v-495L22-715h482l56 111v137l-32 65" id="c"/><g id="a"><use transform="matrix(0.09777777777777759,0,0,0.09777777777777759,0,0)" xlink:href="#b"/><use transform="matrix(0.09777777777777759,0,0,0.09777777777777759,60.32888888888877,0)" xlink:href="#c"/></g></defs></g></svg>